<svg xmlns="http://www.w3.org/2000/svg" viewBox="0 0 1409 367.16"><defs><style>.cls-1{fill:none;}.cls-2{fill:#0094d9;}</style></defs><g id="Layer_2" data-name="Layer 2"><g id="Layer_1-2" data-name="Layer 1"><path class="cls-1" d="M108.5,29A79.43,79.43,0,0,0,43.3,153.9,155.89,155.89,0,0,1,167.28,55,79.31,79.31,0,0,0,108.5,29Zm4.29,43.9c1.42-.78,2.87-1.52,4.32-2.25C115.66,71.38,114.21,72.12,112.79,72.9Zm10.12-5c1.14-.52,2.27-1,3.43-1.52C125.18,66.84,124.05,67.36,122.91,67.88Z"/><path class="cls-1" d="M154.37,206.81a112.47,112.47,0,0,0,17.84,20.91C187,241,199.56,245,203.44,247s6.15,1.62,8.42-1,9.7-11.34,12.29-15.22,5.19-3.24,8.74-2,22.66,10.69,26.54,12.64,6.48,2.91,7.45,4.53,1,9.4-2.26,18.48S245.87,281.85,238.41,283A53.31,53.31,0,0,1,214,281.42a224,224,0,0,1-22.14-8.18c-36.44-15.73-61-51.07-65.66-57.68A109.19,109.19,0,0,1,108.5,217a107.82,107.82,0,0,1-49-11.72c0,1.22-.06,2.44-.06,3.67,0,29.08,8.51,50.84,22.82,73.62L69.19,330.24l48.9-12.82c21.9,13,42.8,20.79,70.45,20.8,71.19,0,129.18-57.94,129.22-129.16a129.15,129.15,0,0,0-104-126.8,108.48,108.48,0,0,1-59.41,124.55Z"/><path class="cls-1" d="M111.7,187.92a48.32,48.32,0,0,1-2.07-13.48c0-19.11,10-28.5,13.59-32.39a14.25,14.25,0,0,1,10.35-4.86l7.45.13c2.38.12,5.58-.9,8.74,6.66,2.47,6,7.58,18.51,10.29,25a79.3,79.3,0,0,0,22.62-89,129.48,129.48,0,0,0-118.54,94.5A79,79,0,0,0,108.5,188C109.57,188,110.63,188,111.7,187.92Z"/><path class="cls-2" d="M108.5,217a109.19,109.19,0,0,0,17.65-1.44c-.31-.46-.54-.78-.67-.95-1.46-2-9.84-13.08-13.78-26.69-1.07,0-2.13.08-3.2.08a79,79,0,0,1-44.37-13.56A79.93,79.93,0,0,1,43.3,153.9,79.45,79.45,0,0,1,167.28,55a156.22,156.22,0,0,1,21.32-1.47c4.63,0,9.23.22,13.79.62A108.46,108.46,0,1,0,108.5,217Z"/><path class="cls-2" d="M160.05,169c.84,2,1.45,3.4,1.68,3.86a7.15,7.15,0,0,1,.33,6.81c-1.31,2.6-1.95,4.22-3.92,6.46s-4.08,5.07-5.83,6.81c-1.93,1.94-4,4-1.7,7.92.72,1.23,2,3.36,3.76,6A108.48,108.48,0,0,0,213.78,82.26a129.25,129.25,0,0,0-25.13-2.46c-2,0-4,0-6,.14a79.3,79.3,0,0,1-22.62,89Z"/><path d="M117.11,70.65c-1.45.73-2.9,1.47-4.32,2.25C114.21,72.12,115.66,71.38,117.11,70.65Z"/><path d="M126.34,66.36c-1.16.48-2.29,1-3.43,1.52C124.05,67.36,125.18,66.84,126.34,66.36Z"/><path d="M191.81,273.24A224,224,0,0,0,214,281.42,53.31,53.31,0,0,0,238.41,283c7.46-1.11,23-9.39,26.21-18.46s3.24-16.86,2.26-18.48-3.55-2.58-7.45-4.53-23-11.34-26.54-12.64-6.14-1.94-8.74,2-10,12.64-12.29,15.22-4.54,2.92-8.42,1-16.4-6-31.23-19.27a112.47,112.47,0,0,1-17.84-20.91c-1.77-2.64-3-4.77-3.76-6-2.26-3.88-.23-6,1.7-7.92,1.75-1.74,3.88-4.53,5.83-6.81s2.61-3.86,3.92-6.46a7.15,7.15,0,0,0-.33-6.81c-.23-.46-.84-1.87-1.68-3.86-2.71-6.46-7.82-19-10.29-25-3.16-7.56-6.36-6.54-8.74-6.66l-7.45-.13a14.25,14.25,0,0,0-10.35,4.86c-3.55,3.89-13.59,13.28-13.59,32.39a48.32,48.32,0,0,0,2.07,13.48c3.94,13.61,12.32,24.73,13.78,26.69.13.17.36.49.67.95C130.77,222.17,155.37,257.51,191.81,273.24Z"/><path d="M298.53,99.14a154.23,154.23,0,0,0-96.14-45c-4.56-.4-9.16-.62-13.79-.62A155.38,155.38,0,0,0,43.3,153.9a79.93,79.93,0,0,0,20.83,20.54,129.48,129.48,0,0,1,118.54-94.5c2-.09,4-.14,6-.14A129.06,129.06,0,0,1,317.76,209.06c0,71.22-58,129.16-129.22,129.16-27.65,0-48.55-7.8-70.45-20.8l-48.9,12.82,13.06-47.67C67.94,259.79,59.42,238,59.43,209c0-1.23,0-2.45.06-3.67a108.77,108.77,0,0,1-24.86-17.39,157.22,157.22,0,0,0-1.44,21.05,155.1,155.1,0,0,0,20.74,77.69l-22,80.53,82.38-21.61a155.44,155.44,0,0,0,74.33,18.92c85.65,0,155.36-69.71,155.4-155.39A154.53,154.53,0,0,0,298.53,99.14Z"/><path d="M514.64,301.65H497.75a18.14,18.14,0,0,1-8.37-1.6q-3-1.59-4.57-6.47l-3.34-11.11a125.71,125.71,0,0,1-11.65,9.36A70.61,70.61,0,0,1,458,298.61a60.31,60.31,0,0,1-12.94,4.1,77.24,77.24,0,0,1-15.21,1.37,59.84,59.84,0,0,1-18.27-2.67,39.36,39.36,0,0,1-14.38-8,36.29,36.29,0,0,1-9.36-13.29,47.27,47.27,0,0,1-3.35-18.47,36.52,36.52,0,0,1,4.65-17.49q4.63-8.62,15.44-15.57t28.77-11.53q18-4.58,44.58-4.58v-9.2q0-15.79-6.61-23.39t-19.26-7.59a46.81,46.81,0,0,0-15.21,2.13,59.11,59.11,0,0,0-10.58,4.8q-4.49,2.67-8.3,4.79a16.8,16.8,0,0,1-8.36,2.13,10.89,10.89,0,0,1-6.55-2,15.44,15.44,0,0,1-4.41-4.87l-6.85-12q26.94-24.65,65-24.65a62.89,62.89,0,0,1,24.43,4.49,51.83,51.83,0,0,1,18.18,12.48,53.39,53.39,0,0,1,11.34,19.1A73.28,73.28,0,0,1,514.64,203Zm-73.05-23.44a51.33,51.33,0,0,0,10.66-1,40.78,40.78,0,0,0,9.2-3.15,49.14,49.14,0,0,0,8.37-5.17,74.53,74.53,0,0,0,8.14-7.27V235.45a152.44,152.44,0,0,0-27.46,2.07,72.34,72.34,0,0,0-17.73,5.29q-6.7,3.21-9.51,7.51a16.67,16.67,0,0,0-2.82,9.35q0,10,5.86,14.25T441.59,278.21Z"/><path d="M591.64,75.51V301.65H554.06V75.51Z"/><path d="M688.13,142.77A83.12,83.12,0,0,1,707,144.83a64.28,64.28,0,0,1,16.13,6H768v14a7.81,7.81,0,0,1-1.82,5.48q-1.83,2-6.24,2.74l-14,2.58a48.17,48.17,0,0,1,2.35,8.37,49.69,49.69,0,0,1,.84,9.29,46.49,46.49,0,0,1-4.64,20.92,47,47,0,0,1-12.78,15.9,59.13,59.13,0,0,1-19.33,10.12,79.15,79.15,0,0,1-24.27,3.58,87.93,87.93,0,0,1-17.2-1.67q-7.3,4.44-7.31,10a7.37,7.37,0,0,0,4.34,7,35.49,35.49,0,0,0,11.42,3.14,126,126,0,0,0,16,.92q9,0,18.42.76a145.47,145.47,0,0,1,18.41,2.67,54.05,54.05,0,0,1,16,6,32.24,32.24,0,0,1,11.42,11.23q4.34,7.1,4.34,18.24a43,43,0,0,1-5.1,20.15,54.1,54.1,0,0,1-14.76,17.41,77.17,77.17,0,0,1-23.67,12.29q-14,4.65-32,4.66-17.8,0-30.89-3.43T636,344a39.57,39.57,0,0,1-12.86-13.16,30.88,30.88,0,0,1-4.26-15.52q0-11,6.7-18.42t18.57-11.87a25.93,25.93,0,0,1-9.29-8.52q-3.5-5.32-3.5-13.85a23.33,23.33,0,0,1,1.22-7.23,28.81,28.81,0,0,1,3.73-7.38,36.48,36.48,0,0,1,6.31-6.92,43.54,43.54,0,0,1,9-5.86A49.18,49.18,0,0,1,633,218.25q-6.76-10.65-6.77-24.95a45.81,45.81,0,0,1,17.58-36.91,59.07,59.07,0,0,1,19.63-10.12A83.55,83.55,0,0,1,688.13,142.77Zm41.24,165.44a10.75,10.75,0,0,0-2.74-7.62,18,18,0,0,0-7.46-4.58,54.05,54.05,0,0,0-11-2.41,109.42,109.42,0,0,0-13.39-.78H680.14a62.15,62.15,0,0,1-14.54-1.67,34.06,34.06,0,0,0-10.27,8.29,17,17,0,0,0-3.88,11,15.17,15.17,0,0,0,2.06,7.68,17.15,17.15,0,0,0,6.54,6.16,38.83,38.83,0,0,0,11.64,4,90.36,90.36,0,0,0,17.5,1.44,87.31,87.31,0,0,0,18.11-1.63,43.34,43.34,0,0,0,12.56-4.5,19.32,19.32,0,0,0,7.23-6.84A17,17,0,0,0,729.37,308.21Zm-41.24-88.43a35.22,35.22,0,0,0,12.17-1.91,23.64,23.64,0,0,0,8.6-5.25,21.58,21.58,0,0,0,5.17-8.06,29.51,29.51,0,0,0,1.75-10.35q0-11.57-6.92-18.34t-20.77-6.77q-13.86,0-20.78,6.77t-6.92,18.34a29,29,0,0,0,1.75,10.19,22.47,22.47,0,0,0,5.17,8.15,23.25,23.25,0,0,0,8.68,5.32A35.36,35.36,0,0,0,688.13,219.78Z"/><path d="M914,301.65H897.07a18.14,18.14,0,0,1-8.37-1.6q-3-1.59-4.57-6.47l-3.34-11.11a125.71,125.71,0,0,1-11.65,9.36,70.61,70.61,0,0,1-11.79,6.78,60.31,60.31,0,0,1-12.94,4.1,77.24,77.24,0,0,1-15.21,1.37,59.84,59.84,0,0,1-18.27-2.67,39.36,39.36,0,0,1-14.38-8,36.29,36.29,0,0,1-9.36-13.29,47.27,47.27,0,0,1-3.34-18.47,36.51,36.51,0,0,1,4.64-17.49q4.63-8.62,15.44-15.57t28.77-11.53q18-4.58,44.59-4.58v-9.2q0-15.79-6.62-23.39t-19.26-7.59a46.81,46.81,0,0,0-15.21,2.13,59.11,59.11,0,0,0-10.58,4.8q-4.5,2.67-8.29,4.79a16.86,16.86,0,0,1-8.37,2.13,10.89,10.89,0,0,1-6.55-2,15.44,15.44,0,0,1-4.41-4.87l-6.85-12q26.94-24.65,65-24.65a62.89,62.89,0,0,1,24.43,4.49,51.83,51.83,0,0,1,18.18,12.48,53.39,53.39,0,0,1,11.34,19.1A73.28,73.28,0,0,1,914,203Zm-73.05-23.44a51.33,51.33,0,0,0,10.66-1,40.78,40.78,0,0,0,9.2-3.15,48.75,48.75,0,0,0,8.37-5.17,75.53,75.53,0,0,0,8.15-7.27V235.45a152.48,152.48,0,0,0-27.47,2.07,72.34,72.34,0,0,0-17.73,5.29q-6.71,3.21-9.51,7.51a16.67,16.67,0,0,0-2.82,9.35q0,10,5.86,14.25T840.91,278.21Z"/><path class="cls-2" d="M1066.9,162.71a24,24,0,0,1-1.82,9.28,34.12,34.12,0,0,1-4.26,7.61l-65.9,87h70.46v35H940.59V282.47a21.94,21.94,0,0,1,1.6-7.22,33.88,33.88,0,0,1,4.49-8.3l66.5-88.11H944.85v-35H1066.9Z"/><path class="cls-2" d="M1203.26,301.65q-6.71,0-10.12-1.83t-5.71-7.61l-3.35-8.67q-5.94,5-11.41,8.83a72.55,72.55,0,0,1-11.34,6.46,55.77,55.77,0,0,1-12.48,4,77,77,0,0,1-14.68,1.29,64.35,64.35,0,0,1-19.64-2.82,41,41,0,0,1-15-8.32,36.61,36.61,0,0,1-9.51-13.67,49.43,49.43,0,0,1-3.35-18.85,39.51,39.51,0,0,1,4.27-17.25q4.26-8.86,14.76-16.11t28.3-12.14q17.81-4.89,44.9-4.88v-6.76q0-14-5.71-20.2T1157,176.86a42.87,42.87,0,0,0-13.69,1.83,60.24,60.24,0,0,0-9.51,4.1q-4.2,2.29-8.15,4.11a22.31,22.31,0,0,1-9.43,1.83,14.24,14.24,0,0,1-8.3-2.36,17.47,17.47,0,0,1-5.4-5.86L1094,165.75A95.68,95.68,0,0,1,1125.72,147a111.22,111.22,0,0,1,37.36-6.17,68.47,68.47,0,0,1,25.8,4.64,55.58,55.58,0,0,1,19.47,12.94,56.63,56.63,0,0,1,12.26,19.71,71.08,71.08,0,0,1,4.26,25v98.61Zm-54.18-28.76a37.45,37.45,0,0,0,16-3.2,48.77,48.77,0,0,0,13.85-10.35V237.73a121,121,0,0,0-23.29,1.85,56,56,0,0,0-14.45,4.6c-3.56,1.84-6,3.94-7.38,6.3a15,15,0,0,0-2.06,7.67q0,8.14,4.41,11.44T1149.08,272.89Z"/><path class="cls-2" d="M1258.34,351.72V143.84h29.22a13.09,13.09,0,0,1,7.38,2,10.61,10.61,0,0,1,4.19,5.94l3.5,11.57a79,79,0,0,1,9.81-9.14,65.56,65.56,0,0,1,11.26-7.07,61.64,61.64,0,0,1,12.94-4.64,64.11,64.11,0,0,1,15.14-1.68,48.64,48.64,0,0,1,22.83,5.48,52.65,52.65,0,0,1,18.11,15.83q7.6,10.35,12,25.34a122.48,122.48,0,0,1,4.33,34,105,105,0,0,1-4.94,32.87,82.76,82.76,0,0,1-13.85,26.18,63.78,63.78,0,0,1-21.31,17.34,60.24,60.24,0,0,1-27.47,6.24q-12.32,0-20.69-3.5a55.93,55.93,0,0,1-15.22-9.43v60.57Zm77-174.86a40.74,40.74,0,0,0-9.36,1,34.68,34.68,0,0,0-7.76,2.81,29.12,29.12,0,0,0-6.62,4.65,68.39,68.39,0,0,0-6.09,6.46v67a29.75,29.75,0,0,0,11.56,8.3,36.79,36.79,0,0,0,13.09,2.36,27.71,27.71,0,0,0,12-2.59,24.46,24.46,0,0,0,9.52-8.29,44.44,44.44,0,0,0,6.31-14.84,93,93,0,0,0,2.28-22.22,102.06,102.06,0,0,0-1.82-21,43.35,43.35,0,0,0-5.1-13.77,19.76,19.76,0,0,0-7.84-7.54A22.48,22.48,0,0,0,1335.35,176.86Z"/></g></g></svg>